<?xml version="1.0" encoding="utf-8"?>
<svg viewBox="167.049 132.925 121.845 146.683" style="enable-background:new 0 0 352.644 352.644;" xmlns="http://www.w3.org/2000/svg" xmlns:xlink="http://www.w3.org/1999/xlink" xmlns:bx="https://boxy-svg.com">
  <defs>
    <linearGradient id="gradient-2-0" gradientUnits="userSpaceOnUse" x1="179.369" y1="69.414" x2="179.369" y2="267.314" gradientTransform="matrix(-0.658309, -0.106891, 0.120873, -0.744432, 311.907032, 345.916147)" xlink:href="#gradient-2"/>
    <linearGradient id="gradient-2" spreadMethod="pad" bx:pinned="true">
      <title>Test</title>
      <stop offset="0" style="stop-color: rgb(255, 255, 0);"/>
      <stop offset="1" style="stop-color: rgb(223, 30, 30);"/>
    </linearGradient>
    <linearGradient id="gradient-1-0" gradientUnits="userSpaceOnUse" x1="194.29" y1="105.774" x2="194.29" y2="242.459" gradientTransform="matrix(0.561841, -0.312094, 0.484042, 0.87139, 50.166023, 126.36529)" xlink:href="#gradient-1"/>
    <linearGradient id="gradient-1" bx:pinned="true">
      <stop offset="0" style="stop-color: rgb(0, 206, 10);"/>
      <stop offset="0.454" style="stop-color: rgb(0, 255, 89);"/>
      <stop offset="1" style="stop-color: rgb(0, 149, 255);"/>
    </linearGradient>
    <linearGradient id="gradient-1-1" gradientUnits="userSpaceOnUse" x1="147.968" y1="159.245" x2="147.968" y2="242.459" gradientTransform="matrix(0.572897, 0.291302, -0.473826, 0.931866, 215.436985, -0.021582)" xlink:href="#gradient-1"/>
  </defs>
  <path d="M 173.739 206.211 L 173.739 152.74 L 227.72 139.246 L 281.702 152.74 L 281.702 153.521 L 281.702 206.221 C 281.449 226.309 268.142 243.328 255.081 254.774 C 241.93 266.245 228.765 272.857 228.765 272.857 L 227.717 273.382 L 226.973 273.005 L 226.677 272.857 C 226.677 272.857 213.51 266.244 200.36 254.773 C 187.299 243.327 173.991 226.299 173.739 206.211 Z" fill="none" style="paint-order: stroke; stroke-linecap: round; stroke-width: 10px; stroke-linejoin: round;"/>
  <path d="M 171.317 206.211 L 171.317 159.279 C 171.317 159.279 171.306 158.105 171.301 158.041 C 171.295 157.959 171.298 157.826 171.306 157.718 C 171.32 157.533 171.362 157.237 171.432 156.919 C 171.564 156.316 171.844 155.412 172.32 154.479 C 173.244 152.671 175.177 150.419 178.446 149.075 L 178.497 149.054 L 227.72 136.749 L 227.963 136.81 L 277.737 149.253 C 281.057 150.198 282.831 152.456 283.526 154.345 C 283.884 155.317 284.04 156.284 284.096 156.935 C 284.125 157.273 284.133 157.569 284.132 157.758 C 284.132 157.859 284.124 158.866 284.124 158.866 L 284.124 206.252 C 283.614 227.07 269.89 244.987 256.673 256.598 C 245.811 266.036 234.93 272.286 231.219 274.298 C 230.342 274.774 228.165 275.865 228.165 275.865 L 227.716 276.09 L 227.268 275.864 C 227.268 275.864 225.101 274.775 224.223 274.298 C 220.512 272.286 209.626 266.032 198.763 256.595 C 185.547 244.983 171.827 227.029 171.317 206.211 Z M 203.272 251.446 C 214.5 261.32 224.544 266.733 227.721 268.417 C 230.897 266.733 240.94 261.322 252.17 251.446 C 264.954 240.289 277.507 224.926 277.28 206.202 L 277.28 158.587 C 277.28 158.587 277.284 157.445 277.204 157.228 C 276.917 156.459 276.496 155.918 275.333 155.704 L 227.72 143.804 L 179.732 155.801 C 179.558 155.869 179.378 155.959 179.181 156.091 C 178.491 156.55 178.172 157.057 178.158 158.488 L 178.161 206.211 C 177.935 224.935 190.487 240.288 203.272 251.446 Z" style="fill: url(#gradient-2-0);"/>
  <path d="M 267.559 251.405 L 245.866 251.403 C 245.322 251.361 244.533 251.094 244.066 250.84 C 243.634 250.521 243.13 249.934 242.866 249.461 L 212.713 186.405 L 200.727 186.402 C 199.964 186.327 198.992 185.906 198.417 185.429 L 198.366 185.387 L 198.328 185.34 C 197.85 184.754 197.461 183.738 197.393 182.986 L 197.395 163.609 C 197.47 162.842 197.892 161.871 198.364 161.297 L 198.408 161.244 L 198.457 161.204 C 199.043 160.728 200.059 160.339 200.812 160.271 L 227.894 160.272 C 228.44 160.313 229.236 160.579 229.706 160.835 C 230.144 161.158 230.648 161.753 230.911 162.221 L 260.915 225.271 L 267.644 225.274 C 268.406 225.349 269.379 225.771 269.954 226.246 L 270.006 226.288 L 270.044 226.336 C 270.522 226.922 270.91 227.942 270.979 228.691 L 270.977 248.071 C 270.901 248.833 270.48 249.804 270.005 250.38 L 269.962 250.432 L 269.914 250.471 C 269.327 250.948 268.31 251.335 267.559 251.405 Z M 248.076 244.593 L 264.174 244.593 L 264.174 232.077 L 258.777 232.077 C 258.236 232.041 257.489 231.84 257.016 231.591 C 256.585 231.277 255.993 230.666 255.721 230.189 L 225.689 167.081 L 204.21 167.081 L 204.21 179.607 L 214.858 179.607 C 215.396 179.641 216.146 179.841 216.624 180.097 C 217.056 180.409 217.637 181.009 217.91 181.485 Z" style="fill: url(#gradient-1-0); paint-order: stroke; stroke-linecap: round; stroke-width: 10px; stroke-linejoin: round;"/>
  <path d="M 247.546 254.072 L 247.502 254.067 C 246.653 253.966 245.241 253.478 244.563 253.131 L 244.48 253.089 L 244.412 253.034 C 243.772 252.525 242.849 251.41 242.436 250.723 L 212.238 187.573 L 201.336 187.567 L 201.277 187.558 C 200.122 187.387 198.462 186.68 197.585 186.015 L 197.352 185.834 L 197.274 185.729 L 197.189 185.617 C 196.504 184.686 195.831 182.9 195.683 181.796 L 195.676 181.742 L 195.681 161.701 L 195.69 161.642 C 195.863 160.48 196.568 158.823 197.231 157.95 L 197.413 157.716 L 197.516 157.638 L 197.633 157.548 C 198.564 156.864 200.351 156.191 201.455 156.044 L 201.508 156.037 L 201.574 156.037 L 229.439 156.045 C 230.292 156.142 231.705 156.624 232.392 156.974 L 232.476 157.017 L 232.544 157.071 C 233.201 157.595 234.129 158.723 234.535 159.401 L 264.581 222.541 L 270.107 222.545 L 270.166 222.554 C 271.318 222.726 272.976 223.432 273.854 224.097 L 274.083 224.277 L 274.16 224.376 L 274.252 224.497 C 274.936 225.43 275.609 227.217 275.755 228.319 L 275.762 228.373 L 275.758 248.418 L 275.749 248.476 C 275.576 249.631 274.872 251.288 274.206 252.165 L 274.025 252.398 L 273.923 252.476 L 273.801 252.569 C 272.87 253.252 271.085 253.921 269.985 254.068 L 269.931 254.075 Z M 248.354 247.234 L 268.922 247.232 C 268.922 247.232 268.985 247.682 269.076 247.715 L 269.262 247.232 L 268.922 247.232 L 268.918 229.381 L 262.42 229.384 L 260.89 229.384 L 260.258 229.384 L 228.657 162.977 L 229.153 162.879 L 228.611 162.879 L 228.356 162.344 C 228.407 162.439 228.477 162.537 228.571 162.617 C 228.457 162.511 228.365 162.351 228.305 162.217 L 228.301 162.203 C 228.291 162.168 228.271 162.087 228.258 162.023 L 228.292 162.186 C 228.267 162.128 228.249 162.077 228.238 162.038 C 228.25 162.086 228.27 162.152 228.3 162.226 L 228.438 162.879 L 202.812 162.88 L 202.519 161.902 L 202.519 162.88 L 201.723 162.88 C 201.781 162.865 201.841 162.845 201.901 162.816 C 201.931 162.802 201.964 162.781 201.996 162.755 C 201.879 162.816 201.746 162.856 201.632 162.88 L 202.519 163.25 L 202.52 180.478 L 201.551 180.731 L 202.52 180.731 L 202.52 181.524 C 202.509 181.482 202.495 181.438 202.477 181.394 C 202.461 181.357 202.438 181.318 202.407 181.279 C 202.463 181.395 202.499 181.525 202.52 181.638 L 202.893 180.731 L 214.396 180.729 L 216.552 180.729 Z M 200.606 182.664 L 200.606 160.958 L 229.835 160.958 L 230.763 162.909 L 261.475 227.457 L 270.846 227.457 L 270.846 249.153 L 247.129 249.153 L 246.199 247.207 L 215.35 182.664 Z M 251.442 242.31 L 264.002 242.31 L 264.002 234.3 L 260.879 234.3 C 260.083 234.225 258.678 233.874 257.941 233.517 L 257.86 233.478 L 257.784 233.419 C 257.181 232.955 256.119 231.875 255.661 231.145 L 225.511 167.802 L 207.45 167.802 L 207.45 175.82 L 215.945 175.82 C 216.74 175.894 218.145 176.245 218.891 176.609 L 218.971 176.647 L 219.046 176.705 C 219.652 177.17 220.699 178.237 221.156 178.963 Z" style="fill: none;"/>
  <path d="M 209.555 251.405 L 186.687 251.403 C 186.206 251.365 185.501 251.152 185.071 250.943 C 184.666 250.682 184.147 250.153 183.87 249.768 C 183.64 249.345 183.437 248.63 183.377 248.162 C 183.378 247.68 183.529 246.982 183.701 246.542 L 207.577 196.523 C 207.847 196.05 208.428 195.446 208.859 195.131 C 209.339 194.876 210.16 194.677 210.687 194.639 C 211.2 194.674 211.912 194.876 212.401 195.146 C 212.884 195.476 213.416 196.109 213.668 196.544 L 225.14 220.174 C 225.303 220.565 225.456 221.155 225.456 221.607 C 225.456 222.056 225.289 222.682 225.123 223.076 L 212.615 249.501 C 212.344 249.985 211.756 250.595 211.327 250.908 C 210.85 251.163 210.092 251.367 209.555 251.405 Z M 210.649 205.859 L 192.154 244.593 L 207.416 244.593 L 218.294 221.63 Z" style="fill: url(#gradient-1-1); paint-order: stroke; stroke-linecap: round; stroke-width: 10px; stroke-linejoin: round;"/>
  <path d="M 210.519 254.075 L 186.957 254.067 C 186.207 253.983 184.946 253.592 184.318 253.305 L 184.241 253.27 L 184.178 253.226 C 183.561 252.794 182.636 251.84 182.227 251.299 L 182.174 251.23 L 182.139 251.159 C 181.803 250.482 181.447 249.199 181.348 248.532 L 181.335 248.447 L 181.338 248.367 C 181.365 247.623 181.668 246.313 181.903 245.669 L 206.402 194.355 C 206.856 193.629 207.904 192.557 208.508 192.091 L 208.586 192.031 L 208.667 191.992 C 209.438 191.623 210.901 191.278 211.649 191.205 L 211.741 191.196 L 211.827 191.205 C 212.597 191.282 213.852 191.648 214.625 192.038 L 214.694 192.073 L 214.753 192.118 C 215.505 192.683 216.506 193.88 216.886 194.5 L 228.674 218.793 C 228.898 219.362 229.187 220.431 229.187 221.19 C 229.187 221.955 228.84 223.152 228.616 223.719 L 215.748 250.891 C 215.292 251.629 214.237 252.713 213.633 253.179 L 213.558 253.237 L 213.479 253.276 C 212.733 253.641 211.31 253.998 210.519 254.075 Z M 187.737 247.399 L 187.778 247.431 C 187.785 247.436 187.809 247.455 187.825 247.469 C 187.843 247.484 187.893 247.533 187.937 247.583 C 187.911 247.55 187.889 247.525 187.876 247.513 C 187.829 247.467 187.764 247.419 187.749 247.408 Z M 209.914 247.482 L 209.805 247.611 C 209.867 247.545 209.944 247.467 210.03 247.401 C 209.989 247.424 209.953 247.447 209.925 247.471 C 209.921 247.475 209.918 247.478 209.914 247.482 Z M 210.678 247.233 L 210.239 247.098 L 210.125 247.232 L 210.605 247.232 L 210.618 247.234 C 210.605 247.235 210.592 247.236 210.578 247.238 C 210.598 247.237 210.618 247.237 210.637 247.238 L 210.667 247.243 C 210.726 247.253 210.835 247.281 210.905 247.302 L 210.704 247.24 C 210.753 247.244 210.798 247.249 210.834 247.257 C 210.808 247.25 210.78 247.244 210.752 247.239 C 210.73 247.235 210.705 247.233 210.678 247.233 Z M 185.667 249.153 L 211.608 194.825 L 224.39 221.192 L 211.144 249.153 Z M 211.655 210.61 L 196.519 242.31 L 206.812 242.31 L 216.801 221.226 Z" style="fill: none;"/>
</svg>